<?xml version="1.0" ?><svg viewBox="0 0 96 96" xmlns="http://www.w3.org/2000/svg"><title/><rect height="37.02" rx="4.3" ry="4.3" style="fill:#575072" transform="translate(-52 35.13) rotate(-45)" width="8.6" x="12.11" y="61.83"/><path d="M29.5,87.34,9.41,67.25a4.3,4.3,0,0,0-6.08,0,4.25,4.25,0,0,0-1,1.73,4.29,4.29,0,0,1,4.36,1l20.1,20.1a4.29,4.29,0,0,1,1,4.36,4.25,4.25,0,0,0,1.73-1A4.3,4.3,0,0,0,29.5,87.34Z" style="fill:#363354"/><rect height="37.02" rx="4.3" ry="4.3" style="fill:none;stroke:#281a3b;stroke-linecap:round;stroke-linejoin:round;stroke-width:4px" transform="translate(-52 35.13) rotate(-45)" width="8.6" x="12.11" y="61.83"/><rect height="8.6" style="fill:#eaeaea" transform="translate(-42.88 38.92) rotate(-45)" width="17.21" x="16.93" y="66.91"/><rect height="8.6" style="fill:none;stroke:#281a3b;stroke-linecap:round;stroke-linejoin:round;stroke-width:4px" transform="translate(-42.88 38.92) rotate(-45)" width="17.21" x="16.93" y="66.91"/><path d="M40.75,74.25,22.5,56,58.56,19.93a8.6,8.6,0,0,1,12.17,0L76.82,26a8.6,8.6,0,0,1,0,12.17Z" style="fill:#eaeaea"/><path d="M56.72,52.28l-11,11a11.31,11.31,0,0,1-16,0l11,11,19-19Z" style="fill:#c2d2d3"/><path d="M40.75,74.25,22.5,56,58.56,19.93a8.6,8.6,0,0,1,12.17,0L76.82,26a8.6,8.6,0,0,1,0,12.17Z" style="fill:none;stroke:#281a3b;stroke-linecap:round;stroke-linejoin:round;stroke-width:4px"/><path d="M59.72,55.28,41.47,37,58.56,19.93a8.6,8.6,0,0,1,12.17,0L76.82,26a8.6,8.6,0,0,1,0,12.17Z" style="fill:#aae1e9"/><line style="fill:none;stroke:#281a3b;stroke-linecap:round;stroke-linejoin:round;stroke-width:4px" x1="94" x2="79.86" y1="2.75" y2="16.89"/><path d="M76.82,26l-6.08-6.08,3-3a4.3,4.3,0,0,1,6.08,0h0a4.3,4.3,0,0,1,0,6.08Z" style="fill:#eaeaea"/><path d="M76.82,26l-6.08-6.08,3-3a4.3,4.3,0,0,1,6.08,0h0a4.3,4.3,0,0,1,0,6.08Z" style="fill:none;stroke:#281a3b;stroke-linecap:round;stroke-linejoin:round;stroke-width:4px"/><line style="fill:none;stroke:#281a3b;stroke-linecap:round;stroke-linejoin:round;stroke-width:4px" x1="52.33" x2="56.4" y1="26.16" y2="30.23"/><line style="fill:none;stroke:#281a3b;stroke-linecap:round;stroke-linejoin:round;stroke-width:4px" x1="46.91" x2="53.69" y1="31.59" y2="38.36"/><line style="fill:none;stroke:#281a3b;stroke-linecap:round;stroke-linejoin:round;stroke-width:4px" x1="41.49" x2="45.56" y1="37.01" y2="41.07"/><line style="fill:none;stroke:#281a3b;stroke-linecap:round;stroke-linejoin:round;stroke-width:4px" x1="36.07" x2="42.85" y1="42.43" y2="49.2"/><line style="fill:none;stroke:#281a3b;stroke-linecap:round;stroke-linejoin:round;stroke-width:4px" x1="30.65" x2="34.71" y1="47.85" y2="51.91"/><path d="M76.82,38.19,60,55l-.41.19-.23.11-3-3,9.76-9.76a8.61,8.61,0,0,0,0-12.17l-1-1a11.31,11.31,0,0,0-16,0h0l9.43-9.43a8.61,8.61,0,0,1,12.17,0L76.82,26A8.61,8.61,0,0,1,76.82,38.19Z" style="fill:#75c9c9"/><path d="M76.82,38.19,60,55l-.3.3L41.47,37l7.66-7.66h0l9.43-9.43a8.61,8.61,0,0,1,12.17,0L76.82,26A8.61,8.61,0,0,1,76.82,38.19Z" style="fill:none;stroke:#281a3b;stroke-linecap:round;stroke-linejoin:round;stroke-width:4px"/><line style="fill:none;stroke:#281a3b;stroke-linecap:round;stroke-linejoin:round;stroke-width:4px" x1="57.75" x2="64.53" y1="20.74" y2="27.52"/><line style="fill:none;stroke:#281a3b;stroke-linecap:round;stroke-linejoin:round;stroke-width:4px" x1="16.41" x2="46.83" y1="49.92" y2="80.34"/></svg>